<svg xmlns="http://www.w3.org/2000/svg" width="18.581" height="18.577" viewBox="0 0 18.581 18.577">
  <path id="Icon_awesome-instagram" data-name="Icon awesome-instagram" d="M9.291,5.147A4.763,4.763,0,1,0,14.054,9.91,4.755,4.755,0,0,0,9.291,5.147Zm0,7.859a3.1,3.1,0,1,1,3.1-3.1A3.1,3.1,0,0,1,9.291,13.007ZM15.36,4.952a1.111,1.111,0,1,1-1.111-1.111A1.108,1.108,0,0,1,15.36,4.952ZM18.514,6.08a5.5,5.5,0,0,0-1.5-3.892,5.534,5.534,0,0,0-3.892-1.5C11.588.6,6.99.6,5.457.687a5.526,5.526,0,0,0-3.892,1.5,5.516,5.516,0,0,0-1.5,3.892c-.087,1.534-.087,6.131,0,7.665a5.5,5.5,0,0,0,1.5,3.892,5.541,5.541,0,0,0,3.892,1.5c1.534.087,6.131.087,7.664,0a5.5,5.5,0,0,0,3.892-1.5,5.534,5.534,0,0,0,1.5-3.892C18.6,12.206,18.6,7.614,18.514,6.08Zm-1.981,9.306a3.135,3.135,0,0,1-1.766,1.766c-1.223.485-4.124.373-5.476.373s-4.257.108-5.476-.373a3.135,3.135,0,0,1-1.766-1.766c-.485-1.223-.373-4.125-.373-5.476s-.108-4.257.373-5.476A3.135,3.135,0,0,1,3.815,2.668C5.038,2.183,7.94,2.3,9.291,2.3s4.257-.108,5.476.373a3.135,3.135,0,0,1,1.766,1.766c.485,1.223.373,4.125.373,5.476S17.018,14.167,16.533,15.386Z" transform="translate(0.001 -0.622)" fill="#666"/>
</svg>
