<svg id="Icon_ionic-ios-mail-unread" data-name="Icon ionic-ios-mail-unread" xmlns="http://www.w3.org/2000/svg" width="8.125" height="5.625" viewBox="0 0 8.125 5.625">
  <g id="Icon_ionic-ios-mail" data-name="Icon ionic-ios-mail">
    <path id="Path_5" data-name="Path 5" d="M9,2.877l-2.1,2.141a.038.038,0,0,0,0,.055L8.365,6.639a.253.253,0,0,1,0,.359.255.255,0,0,1-.359,0L6.541,5.438a.04.04,0,0,0-.057,0L6.127,5.8a1.573,1.573,0,0,1-1.121.473,1.6,1.6,0,0,1-1.145-.486l-.344-.35a.04.04,0,0,0-.057,0L2,7a.255.255,0,0,1-.359,0,.253.253,0,0,1,0-.359L3.107,5.072a.042.042,0,0,0,0-.055L1,2.877A.038.038,0,0,0,.938,2.9V7.188a.627.627,0,0,0,.625.625H8.438a.627.627,0,0,0,.625-.625V2.9A.039.039,0,0,0,9,2.877Z" transform="translate(-0.938 -2.188)" fill="#fff"/>
    <path id="Path_6" data-name="Path 6" d="M5,5.764a1.062,1.062,0,0,0,.764-.32L8.828,2.324a.614.614,0,0,0-.387-.137H1.561a.61.61,0,0,0-.387.137L4.238,5.443A1.062,1.062,0,0,0,5,5.764Z" transform="translate(-0.938 -2.188)" fill="#fff"/>
  </g>
</svg>
