<svg id="Icon_ionic-ios-mail" data-name="Icon ionic-ios-mail" xmlns="http://www.w3.org/2000/svg" width="21.197" height="14.675" viewBox="0 0 21.197 14.675">
  <path id="Path_10" data-name="Path 10" d="M21.961,2.9,16.478,8.481a.1.1,0,0,0,0,.143l3.837,4.087a.661.661,0,0,1,0,.938.664.664,0,0,1-.938,0L15.556,9.576a.1.1,0,0,0-.148,0l-.932.948a4.1,4.1,0,0,1-2.925,1.233,4.185,4.185,0,0,1-2.986-1.269l-.9-.912a.1.1,0,0,0-.148,0L3.7,13.648a.664.664,0,0,1-.938,0,.661.661,0,0,1,0-.938L6.6,8.624a.108.108,0,0,0,0-.143L1.111,2.9a.1.1,0,0,0-.173.071V14.142a1.635,1.635,0,0,0,1.631,1.631H20.5a1.635,1.635,0,0,0,1.631-1.631V2.968A.1.1,0,0,0,21.961,2.9Z" transform="translate(-0.938 -1.098)" fill="#666"/>
  <path id="Path_11" data-name="Path 11" d="M11.156,11.517a2.77,2.77,0,0,0,1.992-.836l7.995-8.137a1.6,1.6,0,0,0-1.009-.357H2.183a1.591,1.591,0,0,0-1.009.357l7.995,8.137A2.77,2.77,0,0,0,11.156,11.517Z" transform="translate(-0.557 -2.188)" fill="#666"/>
</svg>
